ffmpeg version 4.4.2-0ubuntu0.22.04.1 Copyright (c) 2000-2021 the FFmpeg developers
  built with gcc 11 (Ubuntu 11.2.0-19ubuntu1)
  configuration: --prefix=/usr --extra-version=0ubuntu0.22.04.1 --toolchain=hardened --libdir=/usr/lib/x86_64-linux-gnu --incdir=/usr/include/x86_64-linux-gnu --arch=amd64 --enable-gpl --disable-stripping --enable-gnutls --enable-ladspa --enable-libaom --enable-libass --enable-libbluray --enable-libbs2b --enable-libcaca --enable-libcdio --enable-libcodec2 --enable-libdav1d --enable-libflite --enable-libfontconfig --enable-libfreetype --enable-libfribidi --enable-libgme --enable-libgsm --enable-libjack --enable-libmp3lame --enable-libmysofa --enable-libopenjpeg --enable-libopenmpt --enable-libopus --enable-libpulse --enable-librabbitmq --enable-librubberband --enable-libshine --enable-libsnappy --enable-libsoxr --enable-libspeex --enable-libsrt --enable-libssh --enable-libtheora --enable-libtwolame --enable-libvidstab --enable-libvorbis --enable-libvpx --enable-libwebp --enable-libx265 --enable-libxml2 --enable-libxvid --enable-libzimg --enable-libzmq --enable-libzvbi --enable-lv2 --enable-omx --enable-openal --enable-opencl --enable-opengl --enable-sdl2 --enable-pocketsphinx --enable-librsvg --enable-libmfx --enable-libdc1394 --enable-libdrm --enable-libiec61883 --enable-chromaprint --enable-frei0r --enable-libx264 --enable-shared
  libavutil      56. 70.100 / 56. 70.100
  libavcodec     58.134.100 / 58.134.100
  libavformat    58. 76.100 / 58. 76.100
  libavdevice    58. 13.100 / 58. 13.100
  libavfilter     7.110.100 /  7.110.100
  libswscale      5.  9.100 /  5.  9.100
  libswresample   3.  9.100 /  3.  9.100
  libpostproc    55.  9.100 / 55.  9.100
Guessed Channel Layout for Input Stream #0.1 : mono
Input #0, rtsp, from 'rtsp://admin:Root@1234@10.4.0.222:554':
  Metadata:
    title           : Media Server
  Duration: N/A, start: 0.000000, bitrate: N/A
  Stream #0:0: Video: h264 (Main), yuvj420p(pc, bt709, progressive), 2560x1440, 25 fps, 25 tbr, 90k tbn, 50 tbc
  Stream #0:1: Audio: pcm_alaw, 8000 Hz, mono, s16, 64 kb/s
Please use -q:a or -q:v, -qscale is ambiguous
Stream mapping:
  Stream #0:0 -> #0:0 (h264 (native) -> mjpeg (native))
Press [q] to stop, [?] for help
Output #0, image2, to '/home/pi/source/node-red-dev/grab.jpg':
  Metadata:
    title           : Media Server
    encoder         : Lavf58.76.100
  Stream #0:0: Video: mjpeg, yuvj420p(pc, bt709, progressive), 2560x1440, q=2-31, 200 kb/s, 25 fps, 25 tbn
    Metadata:
      encoder         : Lavc58.134.100 mjpeg
    Side data:
      cpb: bitrate max/min/avg: 0/0/200000 buffer size: 0 vbv_delay: N/A
frame=    1 fps=0.0 q=0.0 size=N/A time=00:00:00.00 bitrate=N/A dup=1 drop=0 speed=   0x    frame=    1 fps=0.0 q=1.0 Lsize=N/A time=00:00:00.04 bitrate=N/A dup=1 drop=1 speed=0.494x    
video:486kB audio:0kB subtitle:0kB other streams:0kB global headers:0kB muxing overhead: unknown

